solid OpenSCAD_Model
  facet normal -0 0 1
    outer loop
      vertex -2.4 17.3 5.2
      vertex 1.2 5.1 5.2
      vertex 1.2 20.9 5.2
    endloop
  endfacet
  facet normal 0 0 1
    outer loop
      vertex -2.4 3.6 5.2
      vertex 1.2 5.1 5.2
      vertex -2.4 17.3 5.2
    endloop
  endfacet
  facet normal 0 0 1
    outer loop
      vertex 1.2 5.1 5.2
      vertex -2.4 3.6 5.2
      vertex 1.2 3.9 5.2
    endloop
  endfacet
  facet normal -0 0 1
    outer loop
      vertex -16.4 20.9 5.2
      vertex -2.4 17.3 5.2
      vertex 1.2 20.9 5.2
    endloop
  endfacet
  facet normal 0 0 1
    outer loop
      vertex -2.4 17.3 5.2
      vertex -16.4 20.9 5.2
      vertex -16.4 17.3 5.2
    endloop
  endfacet
  facet normal -0 0 1
    outer loop
      vertex 1.2 5.1 5.2
      vertex 60 3.9 5.2
      vertex 60 5.1 5.2
    endloop
  endfacet
  facet normal 0 0 1
    outer loop
      vertex 60 3.9 5.2
      vertex 1.2 5.1 5.2
      vertex 1.2 3.9 5.2
    endloop
  endfacet
  facet normal -0 0 1
    outer loop
      vertex 1.2 1.2 5.2
      vertex 60 0 5.2
      vertex 60 1.2 5.2
    endloop
  endfacet
  facet normal 0 0 1
    outer loop
      vertex 1.2 3.9 5.2
      vertex -2.4 3.6 5.2
      vertex 1.2 1.2 5.2
    endloop
  endfacet
  facet normal 0 0 1
    outer loop
      vertex -16.4 0 5.2
      vertex -2.4 3.6 5.2
      vertex -16.4 3.6 5.2
    endloop
  endfacet
  facet normal 0 0 1
    outer loop
      vertex 1.2 1.2 5.2
      vertex -16.4 0 5.2
      vertex 60 0 5.2
    endloop
  endfacet
  facet normal 0 0 1
    outer loop
      vertex -2.4 3.6 5.2
      vertex -16.4 0 5.2
      vertex 1.2 1.2 5.2
    endloop
  endfacet
  facet normal 1 0 0
    outer loop
      vertex 60 1.2 5.2
      vertex 60 0 5.2
      vertex 60 1.2 1.2
    endloop
  endfacet
  facet normal 1 0 0
    outer loop
      vertex 60 3.9 1.2
      vertex 60 5.1 5.2
      vertex 60 3.9 5.2
    endloop
  endfacet
  facet normal 1 0 0
    outer loop
      vertex 60 5.1 5.2
      vertex 60 3.9 1.2
      vertex 60 5.1 0
    endloop
  endfacet
  facet normal 1 -0 0
    outer loop
      vertex 60 1.2 1.2
      vertex 60 5.1 0
      vertex 60 3.9 1.2
    endloop
  endfacet
  facet normal 1 0 0
    outer loop
      vertex 60 1.2 1.2
      vertex 60 0 0
      vertex 60 5.1 0
    endloop
  endfacet
  facet normal 1 0 0
    outer loop
      vertex 60 0 0
      vertex 60 1.2 1.2
      vertex 60 0 5.2
    endloop
  endfacet
  facet normal 0 1 -0
    outer loop
      vertex 60 5.1 0
      vertex 1.2 5.1 5.2
      vertex 60 5.1 5.2
    endloop
  endfacet
  facet normal 0 1 0
    outer loop
      vertex 1.2 5.1 5.2
      vertex 60 5.1 0
      vertex 1.2 5.1 0
    endloop
  endfacet
  facet normal 0 0 -1
    outer loop
      vertex 60 0 0
      vertex 1.2 5.1 0
      vertex 60 5.1 0
    endloop
  endfacet
  facet normal 0 0 -1
    outer loop
      vertex -2.4 17.3 0
      vertex 1.2 5.1 0
      vertex -2.4 3.6 0
    endloop
  endfacet
  facet normal 0 0 -1
    outer loop
      vertex 60 0 0
      vertex -2.4 3.6 0
      vertex 1.2 5.1 0
    endloop
  endfacet
  facet normal 0 0 -1
    outer loop
      vertex -16.4 0 0
      vertex -2.4 3.6 0
      vertex 60 0 0
    endloop
  endfacet
  facet normal -0 0 -1
    outer loop
      vertex -2.4 3.6 0
      vertex -16.4 0 0
      vertex -16.4 3.6 0
    endloop
  endfacet
  facet normal 0 0 -1
    outer loop
      vertex 1.2 5.1 0
      vertex -2.4 17.3 0
      vertex 1.2 20.9 0
    endloop
  endfacet
  facet normal 0 0 -1
    outer loop
      vertex -16.4 20.9 0
      vertex -2.4 17.3 0
      vertex -16.4 17.3 0
    endloop
  endfacet
  facet normal 0 0 -1
    outer loop
      vertex -2.4 17.3 0
      vertex -16.4 20.9 0
      vertex 1.2 20.9 0
    endloop
  endfacet
  facet normal 0 -1 0
    outer loop
      vertex -16.4 0 0
      vertex 60 0 5.2
      vertex -16.4 0 5.2
    endloop
  endfacet
  facet normal 0 -1 -0
    outer loop
      vertex 60 0 5.2
      vertex -16.4 0 0
      vertex 60 0 0
    endloop
  endfacet
  facet normal 0 -1 0
    outer loop
      vertex 1.2 3.9 1.2
      vertex 60 3.9 5.2
      vertex 1.2 3.9 5.2
    endloop
  endfacet
  facet normal 0 -1 -0
    outer loop
      vertex 60 3.9 5.2
      vertex 1.2 3.9 1.2
      vertex 60 3.9 1.2
    endloop
  endfacet
  facet normal -0 0 1
    outer loop
      vertex 1.2 3.9 1.2
      vertex 60 1.2 1.2
      vertex 60 3.9 1.2
    endloop
  endfacet
  facet normal 0 0 1
    outer loop
      vertex 60 1.2 1.2
      vertex 1.2 3.9 1.2
      vertex 1.2 1.2 1.2
    endloop
  endfacet
  facet normal 0 1 -0
    outer loop
      vertex 60 1.2 1.2
      vertex 1.2 1.2 5.2
      vertex 60 1.2 5.2
    endloop
  endfacet
  facet normal 0 1 0
    outer loop
      vertex 1.2 1.2 5.2
      vertex 60 1.2 1.2
      vertex 1.2 1.2 1.2
    endloop
  endfacet
  facet normal -1 0 0
    outer loop
      vertex -16.4 0 0
      vertex -16.4 3.6 5.2
      vertex -16.4 3.6 0
    endloop
  endfacet
  facet normal -1 -0 0
    outer loop
      vertex -16.4 3.6 5.2
      vertex -16.4 0 0
      vertex -16.4 0 5.2
    endloop
  endfacet
  facet normal -1 0 0
    outer loop
      vertex -16.4 17.3 0
      vertex -16.4 20.9 5.2
      vertex -16.4 20.9 0
    endloop
  endfacet
  facet normal -1 -0 0
    outer loop
      vertex -16.4 20.9 5.2
      vertex -16.4 17.3 0
      vertex -16.4 17.3 5.2
    endloop
  endfacet
  facet normal 1 -0 0
    outer loop
      vertex 1.2 5.1 5.2
      vertex 1.2 20.9 0
      vertex 1.2 20.9 5.2
    endloop
  endfacet
  facet normal 1 0 0
    outer loop
      vertex 1.2 20.9 0
      vertex 1.2 5.1 5.2
      vertex 1.2 5.1 0
    endloop
  endfacet
  facet normal 1 -0 0
    outer loop
      vertex 1.2 1.2 5.2
      vertex 1.2 3.9 1.2
      vertex 1.2 3.9 5.2
    endloop
  endfacet
  facet normal 1 0 0
    outer loop
      vertex 1.2 3.9 1.2
      vertex 1.2 1.2 5.2
      vertex 1.2 1.2 1.2
    endloop
  endfacet
  facet normal 0 1 -0
    outer loop
      vertex 1.2 20.9 0
      vertex -16.4 20.9 5.2
      vertex 1.2 20.9 5.2
    endloop
  endfacet
  facet normal 0 1 0
    outer loop
      vertex -16.4 20.9 5.2
      vertex 1.2 20.9 0
      vertex -16.4 20.9 0
    endloop
  endfacet
  facet normal -1 0 0
    outer loop
      vertex -2.4 3.6 0
      vertex -2.4 17.3 5.2
      vertex -2.4 17.3 0
    endloop
  endfacet
  facet normal -1 -0 0
    outer loop
      vertex -2.4 17.3 5.2
      vertex -2.4 3.6 0
      vertex -2.4 3.6 5.2
    endloop
  endfacet
  facet normal 0 1 -0
    outer loop
      vertex -2.4 3.6 0
      vertex -16.4 3.6 5.2
      vertex -2.4 3.6 5.2
    endloop
  endfacet
  facet normal 0 1 0
    outer loop
      vertex -16.4 3.6 5.2
      vertex -2.4 3.6 0
      vertex -16.4 3.6 0
    endloop
  endfacet
  facet normal 0 -1 0
    outer loop
      vertex -16.4 17.3 0
      vertex -2.4 17.3 5.2
      vertex -16.4 17.3 5.2
    endloop
  endfacet
  facet normal 0 -1 -0
    outer loop
      vertex -2.4 17.3 5.2
      vertex -16.4 17.3 0
      vertex -2.4 17.3 0
    endloop
  endfacet
endsolid OpenSCAD_Model
